<svg xmlns="http://www.w3.org/2000/svg" xmlns:xlink="http://www.w3.org/1999/xlink" version="1.1" x="0px" y="0px" viewBox="0 0 65 65" style="enable-background:new 0 0 65 65;" xml:space="preserve">
<style type="text/css">
	.st0{fill:#FFF;}
	.st2{display:inline;}
</style>
<g id="Layer_1">
	<g>
		<rect x="24.2" y="33.3" class="st0" width="8.3" height="1.1"/>
		<rect x="20.6" y="33.3" class="st0" width="1.1" height="1.1"/>
		<rect x="15.7" y="33.3" class="st0" width="1.1" height="1.1"/>
		<rect x="16.8" y="29.4" class="st0" width="8.3" height="1.1"/>
		<rect x="12.5" y="29.4" class="st0" width="1.1" height="1.1"/>
		<polygon class="st0" points="52.5,33.1 52.5,33.1 38.1,18.4 38,18.3 38,27 27.7,27 27.7,28.1 39.2,28.1 39.2,21.2 50.8,33.1     39.2,44 39.2,38.1 27.7,38.1 27.7,39.3 38,39.3 38,46.7   "/>
	</g>
</g>
<g id="Layer_1_copy" class="st1">
	<g class="st2">
		<rect x="24.2" y="33.3" class="st0" width="8.3" height="1.1"/>
		<rect x="20.6" y="33.3" class="st0" width="1.1" height="1.1"/>
		<rect x="15.7" y="33.3" class="st0" width="1.1" height="1.1"/>
		<rect x="16.8" y="29.4" class="st0" width="8.3" height="1.1"/>
		<rect x="12.5" y="29.4" class="st0" width="1.1" height="1.1"/>
		<polygon class="st0" points="52.5,33.1 52.5,33.1 38.1,18.4 38,18.3 38,27 27.7,27 27.7,28.1 39.2,28.1 39.2,21.2 50.8,33.1     39.2,44 39.2,38.1 27.7,38.1 27.7,39.3 38,39.3 38,46.7   "/>
	</g>
</g>
</svg>