<svg width="470" height="427" viewBox="0 0 470 427" fill="none" xmlns="http://www.w3.org/2000/svg">
<circle cx="213.649" cy="213.5" r="213.5" fill="#DBDBDB"/>
<path d="M6.49463 149.992C34.3837 134.326 61.8835 117.951 90.1618 102.993C110.949 91.9969 164.654 60.2425 157.756 82.6586C152.528 99.646 95.1296 160.469 90.8952 165.151C78.2174 179.171 48.8842 211.455 31.9798 227.797C30.8323 228.906 26.9747 231.692 28.0073 230.476C38.0958 218.593 60.2469 199.338 69.6881 191.391C95.5924 169.586 129.143 143.465 156.472 123.692C158.715 122.069 201.688 91.3569 212.821 87.4072C214.164 86.9305 215.123 90.1344 214.41 91.3644C208.514 101.525 176.824 133.717 173.646 137.025C150.195 161.431 77.5825 232.371 100.429 207.402C112.152 194.59 136.89 174.092 146.999 165.821C178.527 140.026 206.324 118.86 239.712 95.4434C251.649 87.0706 263.57 78.6175 276.136 71.2131C280.451 68.6709 286.092 62.7783 290.132 65.7338C293.578 68.2551 286.664 73.6367 283.959 76.9358C275.624 87.103 266.318 96.4469 257.191 105.915C215.309 149.358 171.457 190.894 126.77 231.45C123.641 234.29 114.008 242.534 117.114 239.669C126.289 231.204 135.587 222.869 144.982 214.647C181.388 182.791 231.444 139.787 268.68 109.446C283.56 97.3214 298.511 85.2571 314.028 73.9527C322.094 68.0763 344.815 50.3444 329.735 72.4307C317.483 90.3752 289.868 119.951 276.87 133.798C258.469 153.401 237.706 174.766 217.466 192.974C213.872 196.206 210.914 201.484 206.098 201.984C202.071 202.402 211.498 195.949 214.532 193.278C223.083 185.75 231.844 178.452 240.812 171.422C262.576 154.36 298.403 128.009 321.606 112.733C331.934 105.935 360.08 85.8776 355.342 97.2698C352.267 104.666 345.634 110.071 340.124 115.899C329.804 126.816 318.991 137.278 307.917 147.435C286.857 166.749 250.781 197.518 226.877 214.769C220.939 219.055 215.191 224.877 207.932 225.91C204.594 226.385 210.088 219.345 212.332 216.839C228.347 198.947 262.856 169.976 279.803 156.324C293.044 145.658 306.638 135.43 320.323 125.336C330.193 118.055 339.981 110.602 350.453 104.21C353.54 102.326 360.098 97.126 360.72 100.679C361.659 106.041 355.592 110.347 352.286 114.682C343.912 125.664 334.809 136.082 325.762 146.522C298.74 177.707 279.946 198.106 250.285 227.127C238.562 238.597 226.551 249.779 214.288 260.672C205.844 268.172 197.118 275.363 188.191 282.285C183.496 285.926 179.054 290.305 173.462 292.33C162.168 296.421 189.156 274.071 198.275 266.273C222.664 245.418 258.345 217.72 284.448 199.914C297.116 191.273 310.032 182.912 323.562 175.684C330.85 171.79 338.406 166.239 346.664 166.673C350.082 166.853 348.364 173.908 346.725 176.901C337.537 193.681 306.842 222.943 295.632 233.824C286.954 242.248 262.996 264.797 250.04 274.797C219.208 298.592 309.797 224.772 341.163 201.679C351.876 193.792 362.527 185.807 373.555 178.362C379.166 174.574 384.608 170.16 391.034 168.013C398.366 165.563 386.184 182.917 381.622 189.138C365.379 211.286 346.861 230.891 328.329 251.053C327.589 251.859 325.544 254.369 326.435 253.732C331.766 249.918 336.671 245.545 341.775 241.434C361.138 225.837 388.616 203.323 408.268 188.59C416.212 182.635 424.12 176.564 432.653 171.483C448.943 161.783 438.306 175.263 433.937 181.102C423.196 195.456 406.847 212.843 394.701 225.484C388.505 231.932 382.053 238.129 375.755 244.478C373.578 246.673 366.201 251.482 369.277 251.114C373.197 250.646 375.641 246.458 378.811 244.113C398.549 229.506 411.541 219.405 432.348 205.637C432.859 205.299 459.634 187.237 467.184 186.642C472.109 186.254 464.85 196.525 461.806 200.401C443.76 223.373 380.718 284.586 401.423 263.96" stroke="black" stroke-linecap="round"/>
<path d="M74.2817 360.903L68.4724 357.945V364.353L74.2817 360.903Z" fill="#E30713"/>
<path d="M186.571 347.673L185.983 347.074H185.144H88.321H87.7816L87.3153 347.346L73.7601 355.232L72.7659 355.81V356.96V364.846V365.961L73.7143 366.548L87.2695 374.927L87.7528 375.225H88.321H164.747V388.969H57.4013V334.317H151.256H151.554L151.84 334.229L185.728 323.879L187.144 323.447V321.966V317.037V315.515L185.677 315.11L151.789 305.745L151.527 305.673H151.256H39.9097H39.0707L38.4828 306.271L30.2529 314.65L29.6797 315.234V316.052L29.6797 403.291V404.109L30.2529 404.692L43.324 418L43.9118 418.598H44.7508H182.239H183.078L183.666 418L192.864 408.635L193.437 408.052V407.234V355.482V354.664L192.864 354.08L186.571 347.673ZM42.3047 351.301L35.4513 344.323L42.9886 336.649L50.5259 344.323L43.6725 351.301L42.9886 351.997L42.3047 351.301ZM43.6725 354.103L50.5259 361.081L42.9886 368.755L35.4513 361.081L42.3047 354.103L42.9886 353.407L43.6725 354.103ZM83.8627 319.679L91.4 312.006L98.6872 319.425L98.9373 319.679L98.6872 319.934L91.4 327.353L83.8627 319.679ZM101.541 319.934L101.291 319.679L101.541 319.425L108.828 312.006L116.115 319.425L116.365 319.679L116.115 319.934L108.828 327.353L101.541 319.934ZM118.969 319.425L126.256 312.006L133.793 319.679L126.256 327.353L118.969 319.934L118.719 319.679L118.969 319.425ZM179.309 392.209L171.971 384.739L179.509 377.065L187.046 384.739L179.709 392.209L179.509 392.413L179.309 392.209ZM179.709 395.012L187.046 402.483L179.509 410.156L171.971 402.483L179.309 395.012L179.509 394.809L179.709 395.012ZM136.698 361.081L129.161 368.755L122.842 362.321L121.624 361.081L122.842 359.841L129.161 353.407L136.698 361.081ZM119.988 359.841L121.207 361.081L119.988 362.321L113.669 368.755L106.132 361.081L113.669 353.407L119.988 359.841Z" fill="#284B8D" stroke="white" stroke-width="4"/>
<path d="M67.8584 309.151L57.5136 319.683L67.8584 330.215L78.2032 319.683L67.8584 309.151Z" fill="#EE7CAF"/>
<path d="M136.597 319.679L126.256 330.207L117.542 321.335L108.828 330.207L100.114 321.335L91.4 330.207L81.0593 319.679L91.4 309.151L100.114 318.023L108.828 309.151L117.542 318.023L126.256 309.151L136.597 319.679Z" fill="#EE7CAF"/>
<path d="M153.371 309.151L143.026 319.683L153.371 330.215L163.716 319.683L153.371 309.151Z" fill="#EE7CAF"/>
<path d="M43.9619 309.15L33.6171 319.682L43.9619 330.214L54.3068 319.682L43.9619 309.15Z" fill="#EE7CAF"/>
<path d="M45.0994 352.702L53.3293 361.081L42.9886 371.608L32.6479 361.081L40.8779 352.702L32.6479 344.323L42.9886 333.795L53.3293 344.323L45.0994 352.702Z" fill="#EE7CAF"/>
<path d="M42.0255 377.165L31.6807 387.697L42.0255 398.229L52.3703 387.697L42.0255 377.165Z" fill="#EE7CAF"/>
<path d="M55.5807 391.951L45.2358 402.483L55.5807 413.015L65.9255 402.483L55.5807 391.951Z" fill="#EE7CAF"/>
<path d="M83.6593 391.951L73.3145 402.483L83.6593 413.015L94.0041 402.483L83.6593 391.951Z" fill="#EE7CAF"/>
<path d="M108.833 391.952L98.4884 402.484L108.833 413.016L119.178 402.484L108.833 391.952Z" fill="#EE7CAF"/>
<path d="M132.071 391.952L121.726 402.484L132.071 413.016L142.416 402.484L132.071 391.952Z" fill="#EE7CAF"/>
<path d="M157.244 391.952L146.899 402.484L157.244 413.016L167.588 402.484L157.244 391.952Z" fill="#EE7CAF"/>
<path d="M181.135 393.611L189.849 402.482L179.509 413.01L169.168 402.482L177.882 393.611L169.168 384.739L179.509 374.211L189.849 384.739L181.135 393.611Z" fill="#EE7CAF"/>
<path d="M180.482 350.551L170.137 361.083L180.482 371.615L190.827 361.083L180.482 350.551Z" fill="#EE7CAF"/>
<path d="M157.245 350.551L146.9 361.083L157.245 371.615L167.589 361.083L157.245 350.551Z" fill="#EE7CAF"/>
<path d="M139.502 361.081L129.161 371.608L121.415 363.722L113.669 371.608L103.329 361.081L113.669 350.553L121.415 358.439L129.161 350.553L139.502 361.081Z" fill="#EE7CAF"/>
<path fill-rule="evenodd" clip-rule="evenodd" d="M97.3256 354.496H87.8369C88.2823 352.248 90.2381 350.553 92.5812 350.553C94.9243 350.553 96.8802 352.248 97.3256 354.496Z" fill="#FFDF38"/>
<path fill-rule="evenodd" clip-rule="evenodd" d="M97.3256 367.311H87.8369C88.2823 369.558 90.2381 371.254 92.5812 371.254C94.9243 371.254 96.8802 369.558 97.3256 367.311Z" fill="#FFDF38"/>
<path d="M33.9077 56.7456L31.5556 56.5755L31.7719 58.9238L35.3247 97.4971L35.5523 99.9681L37.9186 99.2208L76.1979 87.1326H107.11L115.81 105.404L42.6447 135.561L43.6331 139.397L146.157 127.723L147.105 127.615L147.618 126.81L161.829 104.478L162.266 103.792L162.1 102.996L157.411 80.4913L182.477 73.8702L183.394 73.6278L183.787 72.7641L188.862 61.5981L189.096 61.0834L189.026 60.5225L188.011 52.4018L187.908 51.5735L187.246 51.0646L180.648 45.9891L180.143 45.6009L179.507 45.5759L155.278 44.6258L151.969 22.4101L151.795 21.2408L150.687 20.8296L119.219 9.15612L118.667 8.95129L118.092 9.07837L26.2263 29.3801L26.4969 33.3265L105.922 39.7397L102.643 54.4922L75.7668 59.7715L33.9077 56.7456Z" fill="#118199" stroke="white" stroke-width="4"/>
<path d="M76.3971 66.8614L42.8993 63.3086V72.4444L66.2463 74.9821L41.3766 82.0877L42.8993 90.7159L76.3971 82.0877V66.8614Z" fill="#FEE004"/>
<path d="M200.745 53.6655L186.026 52.6504L187.042 60.7711L200.745 53.6655Z" fill="#FEB700"/>
<path d="M155.066 79.0417L151.514 67.3682L181.459 71.9361L155.066 79.0417Z" fill="#ED020B"/>
<circle cx="175.368" cy="55.1876" r="3.55281" fill="black"/>
<path d="M157.589 199.525L159.776 202.806C160.136 203.345 160.907 203.405 161.345 202.927L164.352 199.646C164.94 199.005 164.485 197.971 163.615 197.971H158.421C157.622 197.971 157.146 198.861 157.589 199.525Z" fill="black"/>
<path d="M183.142 175.524L181.454 176.597L183.142 175.524L177.295 166.335C176.093 164.446 173.32 164.492 172.181 166.42L167.203 174.843H155.685L150.331 166.429C149.088 164.476 146.194 164.607 145.133 166.666L138.089 180.339L45.5462 187.458V176.261L103.665 172.512C105.243 172.41 106.471 171.1 106.471 169.518V161.192C106.471 159.473 105.029 158.105 103.312 158.197L31.6873 162.017C30.0053 162.106 28.7268 163.563 28.8559 165.243L34.1518 234.089L18.549 282.316C17.8687 284.419 19.6187 286.51 21.8087 286.212L30.5186 285.024C31.5007 284.89 32.3533 284.28 32.7965 283.393L44.3072 260.372L38.0861 281.109C37.5086 283.034 38.95 284.971 40.9596 284.971H50.3111C51.4271 284.971 52.4508 284.351 52.9686 283.363L73.7764 243.639L130.023 240.803L156.601 277.348L158.219 276.172L156.601 277.348C157.166 278.124 158.067 278.584 159.027 278.584H166.826C168.981 278.584 170.433 276.378 169.582 274.398L159.739 251.521L176.725 275.828L178.364 274.682L176.725 275.828C177.286 276.631 178.204 277.11 179.184 277.11H189.7C192.013 277.11 193.456 274.603 192.295 272.603L167.345 229.634L182.896 211.338C183.358 210.795 183.611 210.107 183.611 209.395V177.134C183.611 176.564 183.448 176.005 183.142 175.524Z" fill="#DD8D13" stroke="white" stroke-width="4"/>
<path d="M165.025 198.625L161.502 202.884C161.089 203.384 160.317 203.364 159.929 202.844L156.759 198.585C156.268 197.925 156.739 196.988 157.561 196.988L164.254 196.988C165.101 196.988 165.564 197.973 165.025 198.625Z" fill="black"/>
<path d="M165.025 208.125L161.502 203.866C161.089 203.366 160.317 203.386 159.929 203.906L156.759 208.165C156.268 208.825 156.739 209.762 157.561 209.762L164.254 209.762C165.101 209.762 165.564 208.777 165.025 208.125Z" fill="black"/>
<rect x="156.553" y="190.109" width="8.84399" height="8.84399" rx="1" fill="#0B883A"/>
<circle cx="152.622" cy="188.144" r="3.93066" fill="black"/>
<circle cx="169.327" cy="188.144" r="3.93066" fill="black"/>
<circle cx="136.899" cy="201.901" r="5.89599" fill="#EC141E"/>
<circle cx="136.899" cy="217.625" r="5.89599" fill="#EC141E"/>
<circle cx="131.986" cy="232.363" r="5.89599" fill="#EC141E"/>
<circle cx="118.229" cy="213.693" r="5.89599" fill="#EC141E"/>
<circle cx="112.333" cy="193.057" r="5.89599" fill="#EC141E"/>
<circle cx="129.038" cy="193.057" r="5.89599" fill="#EC141E"/>
<circle cx="111.35" cy="227.45" r="5.89599" fill="#EC141E"/>
<circle cx="95.6274" cy="214.675" r="5.89599" fill="#EC141E"/>
<circle cx="97.5928" cy="200.918" r="5.89599" fill="#EC141E"/>
<circle cx="83.8354" cy="192.075" r="5.89599" fill="#EC141E"/>
<circle cx="72.0434" cy="199.935" r="5.89599" fill="#EC141E"/>
<circle cx="76.9568" cy="215.659" r="5.89599" fill="#EC141E"/>
<circle cx="93.6621" cy="229.416" r="5.89599" fill="#EC141E"/>
<circle cx="67.1301" cy="232.363" r="5.89599" fill="#EC141E"/>
<circle cx="60.2515" cy="217.625" r="5.89599" fill="#EC141E"/>
<circle cx="46.4942" cy="229.416" r="5.89599" fill="#EC141E"/>
<circle cx="52.3902" cy="203.867" r="5.89599" fill="#EC141E"/>
<circle cx="40.5981" cy="196.005" r="5.89599" fill="#EC141E"/>
<circle cx="36.6675" cy="176.352" r="5.89599" fill="#EC141E"/>
<circle cx="48.4595" cy="167.508" r="5.89599" fill="#EC141E"/>
<circle cx="63.1995" cy="168.489" r="5.89599" fill="#EC141E"/>
<circle cx="85.8007" cy="164.559" r="5.89599" fill="#EC141E"/>
<circle cx="99.5581" cy="165.542" r="5.89599" fill="#EC141E"/>
<path d="M231.355 69.8811L233.22 69.3632L233.799 71.2095L241.771 96.6206L256.851 99.0754L247.68 89.9052L247.095 89.3194L247.095 88.4909L247.095 42.0919L247.095 41.2635L247.68 40.6777L282.089 6.26939L282.674 5.6836L283.503 5.6836L331.466 5.6836L332.322 5.6836L332.913 6.30265L365.757 40.7109L366.31 41.2906L366.31 42.0919L366.31 90.5763L366.31 91.4155L365.711 92.0034L339.695 117.546L377.759 125.635L377.344 129.591L228.762 129.591L226.762 129.591L226.762 127.591L226.762 98.653L220.571 74.9197L220.074 73.0147L221.971 72.4878L231.355 69.8811Z" fill="#B88A0B" stroke="white" stroke-width="4"/>
<rect width="33.1501" height="33.1501" transform="matrix(-0.707107 0.707107 0.707107 0.707107 279.352 67.6377)" fill="#EE7CAD"/>
<rect width="33.1501" height="33.1501" transform="matrix(-0.983933 -0.17854 -0.17854 0.983933 362.225 50.6172)" fill="#019542"/>
<rect width="33.1501" height="33.1501" transform="matrix(-0.889586 0.456768 0.456768 0.889586 328.315 10.291)" fill="#FFDF38"/>
<rect width="33.1501" height="33.1501" transform="matrix(-1 8.74228e-08 8.74228e-08 1 330.944 77.0225)" fill="#E40614"/>
<rect width="23.0697" height="23.0697" transform="matrix(-0.606774 0.794874 0.794874 0.606774 288.626 19.6748)" fill="#EF7EB1"/>
<rect width="19.8377" height="19.8377" transform="matrix(-0.982532 0.186094 0.186094 0.982532 299.1 43.6562)" fill="#01933B"/>
<rect width="20.8535" height="20.8535" transform="matrix(-0.998114 -0.0613904 -0.0613904 0.998114 319.052 52.6582)" fill="#1D4FA3"/>
<path d="M366.512 330.902C366.512 330.902 366.509 330.907 366.503 330.916C366.509 330.906 366.512 330.901 366.512 330.902ZM285.312 381.141L286.633 379.639L285.312 381.141L310.436 403.236L296.187 410.496C293.378 411.928 294.396 416.169 297.549 416.169L329.599 416.169C330.359 416.169 331.091 415.881 331.646 415.362L393.545 357.552C394.82 356.362 394.82 354.331 393.523 353.146C388.905 348.928 382.298 342.888 376.753 337.808C373.98 335.267 371.474 332.968 369.614 331.256C368.684 330.4 367.918 329.692 367.361 329.175C367.082 328.916 366.858 328.707 366.694 328.553C366.611 328.475 366.546 328.413 366.497 328.366C366.452 328.323 366.432 328.303 366.427 328.299L366.426 328.298C366.173 328.038 365.806 327.804 365.338 327.718C364.886 327.635 364.5 327.719 364.235 327.821C363.772 328 363.495 328.301 363.411 328.393C363.198 328.629 363.051 328.89 362.975 329.031C362.792 329.368 362.59 329.823 362.383 330.329C361.957 331.366 361.398 332.881 360.741 334.745C359.425 338.484 357.677 343.745 355.755 349.664C352.193 360.64 348.02 373.932 344.863 384.116L304.706 305.329C304.194 304.324 303.161 303.691 302.033 303.691L227.622 303.691C224.607 303.691 223.476 307.639 226.033 309.236L254.631 327.096L224.985 347.066C222.544 348.71 223.684 352.521 226.627 352.554L272.797 353.074L284.542 380.085C284.718 380.489 284.981 380.85 285.312 381.141ZM311.542 404.209C311.542 404.209 311.542 404.208 311.541 404.208L311.542 404.209Z" fill="#BE2020" stroke="white" stroke-width="4"/>
<path d="M337.701 394.427L311.017 330.111C310.787 329.557 310.124 329.328 309.602 329.623L287.982 341.838C287.42 342.156 287.302 342.915 287.741 343.389L336.044 395.49C336.803 396.308 338.129 395.457 337.701 394.427Z" fill="#457EEB"/>
<path d="M261.211 322.505L261.416 310.236C261.426 309.678 260.975 309.22 260.416 309.22L239.283 309.219C238.263 309.219 237.898 310.566 238.777 311.082L259.706 323.351C260.366 323.738 261.199 323.27 261.211 322.505Z" fill="#FFED0A"/>
<path d="M261.183 346.153L261.183 331.64C261.183 330.85 260.308 330.372 259.643 330.799L237.013 345.311C236.173 345.85 236.554 347.153 237.553 347.153L260.183 347.153C260.735 347.153 261.183 346.705 261.183 346.153Z" fill="#FFED0A"/>
<circle cx="276.447" cy="317.001" r="4.37275" transform="rotate(0.645302 276.447 317.001)" fill="black" stroke="black"/>
<circle cx="284.801" cy="354.134" r="3.8982" transform="rotate(0.645302 284.801 354.134)" fill="black"/>
<circle cx="295.409" cy="363.999" r="3.8982" transform="rotate(0.645302 295.409 363.999)" fill="black"/>
<circle cx="292.356" cy="375.66" r="3.8982" transform="rotate(0.645302 292.356 375.66)" fill="black"/>
<circle cx="304.048" cy="375.79" r="3.8982" transform="rotate(0.645302 304.048 375.79)" fill="black"/>
<circle cx="305.866" cy="387.507" r="3.8982" transform="rotate(0.645302 305.866 387.507)" fill="black"/>
<circle cx="319.51" cy="387.662" r="3.8982" transform="rotate(0.645302 319.51 387.662)" fill="black"/>
<path d="M238.928 280.009L238.359 281.046H237.176H228.529H226.17L226.556 278.719L240.289 195.81L240.365 195.352L240.635 194.974L263.524 162.929L264.122 162.092H265.151H359.759H360.508L361.073 162.584L376.841 176.317L377.381 176.788L377.5 177.494L391.233 259.386L391.624 261.717H389.26H384.174H382.607L382.232 260.196L375.951 234.7L368.855 279.359L368.587 281.046H366.88H352.638H350.283L350.664 278.722L354.243 256.924L342.203 279.972L341.642 281.046H340.431H324.154H320.888H320.878H318.559H303.299H301.55L301.317 279.312L298.067 255.113L291.498 279.564L291.1 281.046H289.566H272.781H270.133L270.857 278.499L283.178 235.13L268.899 225.472L238.928 280.009ZM322.375 278.131L339.697 244.423H315.293L320.536 278.744L320.885 281.03L322.375 278.131Z" fill="#B7B7B7" stroke="white" stroke-width="4"/>
<path d="M272.781 219.535L267.695 207.327L241.754 223.604L272.781 219.535Z" fill="#E7051B"/>
<path fill-rule="evenodd" clip-rule="evenodd" d="M284.985 168.669C284.985 168.669 284.985 168.669 284.985 168.669C300.717 168.669 313.469 181.422 313.469 197.153C313.469 212.884 300.717 225.637 284.985 225.637C284.985 225.637 284.985 225.637 284.985 225.637V168.669Z" fill="#488A05"/>
<circle r="4.06916" transform="matrix(-1 0 0 1 269.73 186.98)" fill="black"/>
</svg>
