<?xml version="1.0" ?><svg height="32px" style="fill-rule:evenodd;clip-rule:evenodd;stroke-linejoin:round;stroke-miterlimit:2;" version="1.1" width="32px" xml:space="preserve" xmlns="http://www.w3.org/2000/svg" xmlns:serif="http://www.serif.com/" xmlns:xlink="http://www.w3.org/1999/xlink"><g id="Icon"><path fill="#e2e2e2" d="M30,24c-0,0 -0,-0 -0,-0c-0,-1.657 -1.343,-3 -3,-3l-22,0c-1.657,0 -3,1.343 -3,3c0,1.657 1.343,3 3,3l22,0c1.657,-0 3,-1.343 3,-3Zm-2,-0c-0,0.552 -0.448,1 -1,1c-0,0 -22,-0 -22,-0c-0.552,-0 -1,-0.448 -1,-1c-0,-0.552 0.448,-1 1,-1c0,0 22,0 22,0c0.552,0 1,0.448 1,1Z"/><path fill="#e2e2e2" d="M30,16c-0,0 -0,-0 -0,-0c-0,-1.657 -1.343,-3 -3,-3l-22,0c-1.657,0 -3,1.343 -3,3c0,1.657 1.343,3 3,3l22,0c1.657,-0 3,-1.343 3,-3Zm-2,-0c-0,0.552 -0.448,1 -1,1c-0,0 -22,-0 -22,-0c-0.552,-0 -1,-0.448 -1,-1c-0,-0.552 0.448,-1 1,-1c0,0 22,0 22,0c0.552,0 1,0.448 1,1Z"/><path fill="#e2e2e2" d="M30,8c-0,0 -0,-0 -0,-0c-0,-1.657 -1.343,-3 -3,-3l-22,0c-1.657,0 -3,1.343 -3,3c0,1.657 1.343,3 3,3l22,0c1.657,-0 3,-1.343 3,-3Zm-2,-0c-0,0.552 -0.448,1 -1,1c-0,0 -22,-0 -22,-0c-0.552,-0 -1,-0.448 -1,-1c-0,-0.552 0.448,-1 1,-1c0,0 22,0 22,0c0.552,0 1,0.448 1,1Z"/></g></svg>